<?xml version="1.0" standalone="no"?>
<!DOCTYPE svg PUBLIC "-//W3C//DTD SVG 20010904//EN"
 "http://www.w3.org/TR/2001/REC-SVG-20010904/DTD/svg10.dtd">
<svg version="1.0" xmlns="http://www.w3.org/2000/svg"
 width="1876.000000pt" height="1876.000000pt" viewBox="0 0 1876.000000 1876.000000"
 preserveAspectRatio="xMidYMid meet">
<metadata>
Created by potrace 1.14, written by Peter Selinger 2001-2017
</metadata>
<g transform="translate(0.000000,1876.000000) scale(0.100000,-0.100000)"
fill="#000000" stroke="none">
<path d="M10847 17013 c-1 -1 -56 -4 -122 -7 -129 -7 -210 -12 -290 -20 -27
-3 -79 -8 -115 -11 -36 -3 -76 -8 -90 -10 -14 -2 -50 -7 -80 -10 -114 -13
-430 -65 -570 -94 -177 -37 -613 -147 -670 -169 -8 -3 -17 -6 -20 -7 -127 -35
-539 -181 -554 -196 -6 -5 -20 -9 -33 -9 -13 0 -23 -4 -23 -10 0 -5 -6 -10
-13 -10 -12 0 -161 -62 -302 -125 -119 -53 -412 -200 -505 -253 -52 -30 -119
-68 -149 -84 -30 -16 -79 -45 -108 -64 -29 -19 -55 -34 -58 -34 -8 0 -297
-190 -415 -273 -159 -112 -301 -221 -460 -352 l-136 -112 -1719 -1 c-946 0
-1730 -1 -1742 -1 -13 -1 -62 -35 -115 -83 -89 -78 -530 -516 -593 -588 -17
-19 -73 -84 -124 -145 -51 -60 -103 -121 -115 -135 -157 -183 -491 -658 -647
-920 -18 -30 -73 -126 -95 -167 -13 -24 -36 -64 -50 -90 -34 -62 -175 -337
-196 -383 l-15 -35 1731 1 c952 0 1734 -1 1738 -3 4 -2 -9 -38 -28 -81 -46
-101 -151 -352 -176 -422 -11 -30 -23 -64 -28 -75 -33 -76 -138 -398 -185
-570 -20 -71 -42 -152 -50 -180 -15 -51 -59 -242 -75 -325 -5 -25 -12 -56 -15
-70 -14 -64 -26 -129 -31 -175 -3 -27 -8 -52 -11 -55 -2 -3 -785 -5 -1738 -5
-953 0 -1737 -3 -1740 -7 -4 -4 -9 -22 -11 -40 -2 -18 -8 -58 -14 -88 -5 -30
-12 -77 -15 -105 -4 -27 -8 -61 -10 -75 -8 -55 -16 -127 -19 -170 -2 -25 -7
-70 -10 -100 -33 -308 -40 -1026 -12 -1250 2 -14 7 -65 11 -114 4 -49 8 -98
10 -110 2 -11 6 -52 10 -90 4 -38 8 -79 10 -90 2 -12 6 -43 9 -71 4 -27 9 -63
12 -78 3 -16 7 -38 9 -50 1 -12 6 -42 9 -67 l8 -45 1739 0 c956 0 1740 -3
1740 -7 1 -5 2 -11 3 -15 1 -5 6 -28 10 -53 13 -72 15 -81 31 -160 8 -41 17
-84 19 -95 84 -420 284 -1040 471 -1460 46 -104 62 -140 67 -155 5 -13 -189
-15 -1726 -14 -952 0 -1734 -1 -1738 -3 -7 -3 123 -264 218 -436 73 -133 52
-98 217 -372 45 -74 275 -410 346 -505 89 -120 277 -358 296 -375 6 -5 51 -57
101 -115 110 -129 514 -536 647 -654 55 -48 108 -86 120 -87 12 0 796 -1 1742
-1 l1720 -1 110 -92 c94 -78 159 -129 339 -267 16 -13 94 -68 174 -124 750
-524 1594 -911 2473 -1133 187 -48 496 -114 589 -126 25 -3 52 -8 60 -10 8 -2
35 -7 60 -11 25 -3 52 -7 60 -9 8 -2 44 -6 80 -10 36 -4 72 -9 80 -10 8 -2 40
-6 70 -10 30 -3 69 -8 85 -10 17 -2 68 -7 115 -10 47 -4 101 -9 120 -11 82 -8
391 -18 590 -18 358 0 608 16 950 60 69 8 141 17 160 20 19 2 46 6 60 9 14 3
43 7 65 11 88 12 407 77 520 105 66 17 130 32 141 35 42 8 335 94 460 135 204
66 509 182 674 256 36 16 85 38 110 49 87 37 416 203 545 274 486 271 944 597
1384 985 174 154 506 489 640 645 16 19 44 51 61 70 58 64 265 324 351 440
119 161 243 343 347 512 81 130 117 191 219 373 37 65 263 520 263 528 0 3 13
34 29 69 110 240 259 655 345 958 38 136 111 428 119 476 3 16 9 47 15 69 6
22 13 56 16 75 3 19 8 46 11 60 8 37 36 208 50 295 1 11 6 47 10 80 4 33 9 68
10 77 2 9 7 48 10 85 4 37 9 75 10 84 2 8 6 55 10 105 4 49 9 103 11 119 23
191 23 863 -1 1145 -2 30 -7 89 -10 130 -3 41 -8 89 -10 105 -4 29 -11 85 -21
175 -3 25 -7 56 -9 70 -2 14 -7 45 -10 70 -5 40 -11 74 -30 185 -14 88 -44
242 -49 255 -3 8 -7 31 -10 50 -3 19 -17 82 -32 140 -14 58 -27 112 -29 120
-11 50 -19 83 -37 144 -11 38 -21 76 -23 85 -10 48 -106 341 -167 511 -208
573 -491 1131 -835 1643 -62 92 -117 173 -123 180 -6 6 -54 71 -107 142 -499
673 -1146 1289 -1858 1766 -655 439 -1357 770 -2095 985 -133 39 -472 127
-535 138 -11 2 -54 11 -95 19 -107 23 -235 45 -410 72 -54 8 -258 34 -312 39
-32 3 -82 8 -110 11 -196 19 -383 27 -686 29 -156 0 -284 0 -285 -1z m2448
-1863 c28 -5 62 -11 78 -14 15 -3 39 -8 53 -11 41 -9 174 -55 224 -78 205 -95
402 -262 525 -447 192 -288 260 -626 194 -957 -6 -29 -10 -54 -9 -55 1 -2 -15
-50 -35 -108 -101 -289 -289 -522 -549 -680 -109 -67 -280 -133 -396 -155 -14
-3 -36 -7 -49 -10 -79 -15 -295 -17 -1816 -17 -924 0 -1691 1 -1705 2 -14 1
11 8 55 15 134 23 304 86 427 158 138 81 306 238 396 369 81 118 167 303 186
399 2 13 12 57 20 97 26 121 27 324 2 457 -4 17 -9 44 -11 60 -3 17 -21 76
-40 132 -64 186 -159 337 -305 483 -108 108 -206 179 -330 238 -159 75 -170
79 -350 117 -56 11 179 13 1660 13 949 1 1748 -3 1775 -8z m-63 -4504 c660
-58 1167 -616 1160 -1277 0 -96 -3 -121 -23 -232 -10 -57 -41 -171 -58 -212
-157 -385 -457 -657 -846 -768 -49 -14 -117 -29 -150 -32 -33 -4 -69 -9 -80
-12 -26 -5 -3415 -6 -3421 0 -2 2 29 10 68 17 406 71 767 362 931 750 99 232
124 452 83 730 -27 180 -135 414 -266 575 -175 215 -449 384 -710 439 -56 12
-74 14 -100 16 -20 1 -21 3 -8 8 21 8 3325 7 3420 -2z m-6 -4510 c197 -17 373
-72 538 -170 250 -148 421 -349 549 -647 19 -44 64 -227 72 -294 14 -111 6
-306 -16 -405 -6 -25 -12 -54 -15 -64 -11 -55 -59 -181 -99 -260 -101 -198
-270 -385 -454 -501 -92 -57 -270 -136 -341 -150 -8 -2 -33 -8 -55 -13 -22 -6
-53 -14 -70 -19 -16 -4 -820 -8 -1785 -10 l-1755 -2 112 24 c316 67 600 256
781 519 58 83 134 228 148 281 1 6 10 30 19 55 62 171 78 457 35 645 -7 28
-13 59 -16 69 -11 55 -52 162 -95 249 -165 332 -483 583 -846 667 -46 11 -95
20 -109 20 -14 0 -23 3 -21 8 6 9 3313 7 3423 -2z"/>
</g>
</svg>
